<?xml version="1.0" encoding="UTF-8" standalone="no"?>
<!DOCTYPE svg PUBLIC "-//W3C//DTD SVG 1.1//EN"
 "http://www.w3.org/Graphics/SVG/1.1/DTD/svg11.dtd">
<!-- Generated by graphviz version 2.43.0 (0)
 -->
<!-- Title: Tree Pages: 1 -->
<svg width="599pt" height="671pt"
 viewBox="0.00 0.00 598.50 671.00" xmlns="http://www.w3.org/2000/svg" xmlns:xlink="http://www.w3.org/1999/xlink">
<g id="graph0" class="graph" transform="scale(1 1) rotate(0) translate(4 667)">
<title>Tree</title>
<polygon fill="white" stroke="transparent" points="-4,4 -4,-667 594.5,-667 594.5,4 -4,4"/>
<!-- 0 -->
<g id="node1" class="node">
<title>0</title>
<path fill="#f7f3fd" stroke="black" d="M308,-663C308,-663 200,-663 200,-663 194,-663 188,-657 188,-651 188,-651 188,-592 188,-592 188,-586 194,-580 200,-580 200,-580 308,-580 308,-580 314,-580 320,-586 320,-592 320,-592 320,-651 320,-651 320,-657 314,-663 308,-663"/>
<text text-anchor="start" x="204.5" y="-647.8" font-family="Helvetica,sans-Serif" font-size="14.00">petal.width ≤ 0.8</text>
<text text-anchor="start" x="218.5" y="-632.8" font-family="Helvetica,sans-Serif" font-size="14.00">gini = 0.665</text>
<text text-anchor="start" x="209" y="-617.8" font-family="Helvetica,sans-Serif" font-size="14.00">samples = 120</text>
<text text-anchor="start" x="196" y="-602.8" font-family="Helvetica,sans-Serif" font-size="14.00">value = [39, 37, 44]</text>
<text text-anchor="start" x="228" y="-587.8" font-family="Helvetica,sans-Serif" font-size="14.00">class = r</text>
</g>
<!-- 1 -->
<g id="node2" class="node">
<title>1</title>
<path fill="#e58139" stroke="black" d="M231.5,-536.5C231.5,-536.5 138.5,-536.5 138.5,-536.5 132.5,-536.5 126.5,-530.5 126.5,-524.5 126.5,-524.5 126.5,-480.5 126.5,-480.5 126.5,-474.5 132.5,-468.5 138.5,-468.5 138.5,-468.5 231.5,-468.5 231.5,-468.5 237.5,-468.5 243.5,-474.5 243.5,-480.5 243.5,-480.5 243.5,-524.5 243.5,-524.5 243.5,-530.5 237.5,-536.5 231.5,-536.5"/>
<text text-anchor="start" x="157" y="-521.3" font-family="Helvetica,sans-Serif" font-size="14.00">gini = 0.0</text>
<text text-anchor="start" x="144" y="-506.3" font-family="Helvetica,sans-Serif" font-size="14.00">samples = 39</text>
<text text-anchor="start" x="134.5" y="-491.3" font-family="Helvetica,sans-Serif" font-size="14.00">value = [39, 0, 0]</text>
<text text-anchor="start" x="158" y="-476.3" font-family="Helvetica,sans-Serif" font-size="14.00">class = v</text>
</g>
<!-- 0&#45;&gt;1 -->
<g id="edge1" class="edge">
<title>0&#45;&gt;1</title>
<path fill="none" stroke="black" d="M230.06,-579.91C223.49,-568.76 216.35,-556.66 209.73,-545.44"/>
<polygon fill="black" stroke="black" points="212.65,-543.5 204.56,-536.67 206.63,-547.06 212.65,-543.5"/>
<text text-anchor="middle" x="198.31" y="-557.17" font-family="Helvetica,sans-Serif" font-size="14.00">True</text>
</g>
<!-- 2 -->
<g id="node3" class="node">
<title>2</title>
<path fill="#ebe0fb" stroke="black" d="M374.5,-544C374.5,-544 273.5,-544 273.5,-544 267.5,-544 261.5,-538 261.5,-532 261.5,-532 261.5,-473 261.5,-473 261.5,-467 267.5,-461 273.5,-461 273.5,-461 374.5,-461 374.5,-461 380.5,-461 386.5,-467 386.5,-473 386.5,-473 386.5,-532 386.5,-532 386.5,-538 380.5,-544 374.5,-544"/>
<text text-anchor="start" x="271" y="-528.8" font-family="Helvetica,sans-Serif" font-size="14.00">petal.width ≤ 1.65</text>
<text text-anchor="start" x="288.5" y="-513.8" font-family="Helvetica,sans-Serif" font-size="14.00">gini = 0.496</text>
<text text-anchor="start" x="283" y="-498.8" font-family="Helvetica,sans-Serif" font-size="14.00">samples = 81</text>
<text text-anchor="start" x="269.5" y="-483.8" font-family="Helvetica,sans-Serif" font-size="14.00">value = [0, 37, 44]</text>
<text text-anchor="start" x="298" y="-468.8" font-family="Helvetica,sans-Serif" font-size="14.00">class = r</text>
</g>
<!-- 0&#45;&gt;2 -->
<g id="edge2" class="edge">
<title>0&#45;&gt;2</title>
<path fill="none" stroke="black" d="M278.29,-579.91C283.55,-571.1 289.18,-561.7 294.62,-552.61"/>
<polygon fill="black" stroke="black" points="297.63,-554.4 299.76,-544.02 291.62,-550.81 297.63,-554.4"/>
<text text-anchor="middle" x="305.85" y="-564.57" font-family="Helvetica,sans-Serif" font-size="14.00">False</text>
</g>
<!-- 3 -->
<g id="node4" class="node">
<title>3</title>
<path fill="#4fe88f" stroke="black" d="M303,-425C303,-425 199,-425 199,-425 193,-425 187,-419 187,-413 187,-413 187,-354 187,-354 187,-348 193,-342 199,-342 199,-342 303,-342 303,-342 309,-342 315,-348 315,-354 315,-354 315,-413 315,-413 315,-419 309,-425 303,-425"/>
<text text-anchor="start" x="195" y="-409.8" font-family="Helvetica,sans-Serif" font-size="14.00">petal.length ≤ 4.95</text>
<text text-anchor="start" x="219" y="-394.8" font-family="Helvetica,sans-Serif" font-size="14.00">gini = 0.18</text>
<text text-anchor="start" x="210" y="-379.8" font-family="Helvetica,sans-Serif" font-size="14.00">samples = 40</text>
<text text-anchor="start" x="200.5" y="-364.8" font-family="Helvetica,sans-Serif" font-size="14.00">value = [0, 36, 4]</text>
<text text-anchor="start" x="223.5" y="-349.8" font-family="Helvetica,sans-Serif" font-size="14.00">class = a</text>
</g>
<!-- 2&#45;&gt;3 -->
<g id="edge3" class="edge">
<title>2&#45;&gt;3</title>
<path fill="none" stroke="black" d="M298.67,-460.91C293.18,-452.1 287.31,-442.7 281.64,-433.61"/>
<polygon fill="black" stroke="black" points="284.55,-431.65 276.28,-425.02 278.61,-435.36 284.55,-431.65"/>
</g>
<!-- 10 -->
<g id="node11" class="node">
<title>10</title>
<path fill="#843ee6" stroke="black" d="M449,-425C449,-425 345,-425 345,-425 339,-425 333,-419 333,-413 333,-413 333,-354 333,-354 333,-348 339,-342 345,-342 345,-342 449,-342 449,-342 455,-342 461,-348 461,-354 461,-354 461,-413 461,-413 461,-419 455,-425 449,-425"/>
<text text-anchor="start" x="341" y="-409.8" font-family="Helvetica,sans-Serif" font-size="14.00">petal.length ≤ 4.85</text>
<text text-anchor="start" x="361.5" y="-394.8" font-family="Helvetica,sans-Serif" font-size="14.00">gini = 0.048</text>
<text text-anchor="start" x="356" y="-379.8" font-family="Helvetica,sans-Serif" font-size="14.00">samples = 41</text>
<text text-anchor="start" x="346.5" y="-364.8" font-family="Helvetica,sans-Serif" font-size="14.00">value = [0, 1, 40]</text>
<text text-anchor="start" x="371" y="-349.8" font-family="Helvetica,sans-Serif" font-size="14.00">class = r</text>
</g>
<!-- 2&#45;&gt;10 -->
<g id="edge10" class="edge">
<title>2&#45;&gt;10</title>
<path fill="none" stroke="black" d="M349.33,-460.91C354.82,-452.1 360.69,-442.7 366.36,-433.61"/>
<polygon fill="black" stroke="black" points="369.39,-435.36 371.72,-425.02 363.45,-431.65 369.39,-435.36"/>
</g>
<!-- 4 -->
<g id="node5" class="node">
<title>4</title>
<path fill="#39e581" stroke="black" d="M156.5,-298.5C156.5,-298.5 63.5,-298.5 63.5,-298.5 57.5,-298.5 51.5,-292.5 51.5,-286.5 51.5,-286.5 51.5,-242.5 51.5,-242.5 51.5,-236.5 57.5,-230.5 63.5,-230.5 63.5,-230.5 156.5,-230.5 156.5,-230.5 162.5,-230.5 168.5,-236.5 168.5,-242.5 168.5,-242.5 168.5,-286.5 168.5,-286.5 168.5,-292.5 162.5,-298.5 156.5,-298.5"/>
<text text-anchor="start" x="82" y="-283.3" font-family="Helvetica,sans-Serif" font-size="14.00">gini = 0.0</text>
<text text-anchor="start" x="69" y="-268.3" font-family="Helvetica,sans-Serif" font-size="14.00">samples = 35</text>
<text text-anchor="start" x="59.5" y="-253.3" font-family="Helvetica,sans-Serif" font-size="14.00">value = [0, 35, 0]</text>
<text text-anchor="start" x="82.5" y="-238.3" font-family="Helvetica,sans-Serif" font-size="14.00">class = a</text>
</g>
<!-- 3&#45;&gt;4 -->
<g id="edge4" class="edge">
<title>3&#45;&gt;4</title>
<path fill="none" stroke="black" d="M202.08,-341.91C187.72,-329.99 172.03,-316.98 157.75,-305.12"/>
<polygon fill="black" stroke="black" points="159.9,-302.36 149.97,-298.67 155.43,-307.75 159.9,-302.36"/>
</g>
<!-- 5 -->
<g id="node6" class="node">
<title>5</title>
<path fill="#a06aec" stroke="black" d="M305.5,-306C305.5,-306 198.5,-306 198.5,-306 192.5,-306 186.5,-300 186.5,-294 186.5,-294 186.5,-235 186.5,-235 186.5,-229 192.5,-223 198.5,-223 198.5,-223 305.5,-223 305.5,-223 311.5,-223 317.5,-229 317.5,-235 317.5,-235 317.5,-294 317.5,-294 317.5,-300 311.5,-306 305.5,-306"/>
<text text-anchor="start" x="194.5" y="-290.8" font-family="Helvetica,sans-Serif" font-size="14.00">sepal.length ≤ 6.05</text>
<text text-anchor="start" x="220" y="-275.8" font-family="Helvetica,sans-Serif" font-size="14.00">gini = 0.32</text>
<text text-anchor="start" x="214.5" y="-260.8" font-family="Helvetica,sans-Serif" font-size="14.00">samples = 5</text>
<text text-anchor="start" x="205" y="-245.8" font-family="Helvetica,sans-Serif" font-size="14.00">value = [0, 1, 4]</text>
<text text-anchor="start" x="226" y="-230.8" font-family="Helvetica,sans-Serif" font-size="14.00">class = r</text>
</g>
<!-- 3&#45;&gt;5 -->
<g id="edge5" class="edge">
<title>3&#45;&gt;5</title>
<path fill="none" stroke="black" d="M251.35,-341.91C251.42,-333.65 251.49,-324.86 251.57,-316.3"/>
<polygon fill="black" stroke="black" points="255.07,-316.05 251.65,-306.02 248.07,-315.99 255.07,-316.05"/>
</g>
<!-- 6 -->
<g id="node7" class="node">
<title>6</title>
<path fill="#ffffff" stroke="black" d="M171,-187C171,-187 67,-187 67,-187 61,-187 55,-181 55,-175 55,-175 55,-116 55,-116 55,-110 61,-104 67,-104 67,-104 171,-104 171,-104 177,-104 183,-110 183,-116 183,-116 183,-175 183,-175 183,-181 177,-187 171,-187"/>
<text text-anchor="start" x="63" y="-171.8" font-family="Helvetica,sans-Serif" font-size="14.00">petal.length ≤ 5.05</text>
<text text-anchor="start" x="91" y="-156.8" font-family="Helvetica,sans-Serif" font-size="14.00">gini = 0.5</text>
<text text-anchor="start" x="81.5" y="-141.8" font-family="Helvetica,sans-Serif" font-size="14.00">samples = 2</text>
<text text-anchor="start" x="72" y="-126.8" font-family="Helvetica,sans-Serif" font-size="14.00">value = [0, 1, 1]</text>
<text text-anchor="start" x="91.5" y="-111.8" font-family="Helvetica,sans-Serif" font-size="14.00">class = a</text>
</g>
<!-- 5&#45;&gt;6 -->
<g id="edge6" class="edge">
<title>5&#45;&gt;6</title>
<path fill="none" stroke="black" d="M205.86,-222.91C195.13,-213.47 183.62,-203.34 172.6,-193.65"/>
<polygon fill="black" stroke="black" points="174.88,-191 165.06,-187.02 170.26,-196.25 174.88,-191"/>
</g>
<!-- 9 -->
<g id="node10" class="node">
<title>9</title>
<path fill="#8139e5" stroke="black" d="M299,-179.5C299,-179.5 213,-179.5 213,-179.5 207,-179.5 201,-173.5 201,-167.5 201,-167.5 201,-123.5 201,-123.5 201,-117.5 207,-111.5 213,-111.5 213,-111.5 299,-111.5 299,-111.5 305,-111.5 311,-117.5 311,-123.5 311,-123.5 311,-167.5 311,-167.5 311,-173.5 305,-179.5 299,-179.5"/>
<text text-anchor="start" x="228" y="-164.3" font-family="Helvetica,sans-Serif" font-size="14.00">gini = 0.0</text>
<text text-anchor="start" x="218.5" y="-149.3" font-family="Helvetica,sans-Serif" font-size="14.00">samples = 3</text>
<text text-anchor="start" x="209" y="-134.3" font-family="Helvetica,sans-Serif" font-size="14.00">value = [0, 0, 3]</text>
<text text-anchor="start" x="230" y="-119.3" font-family="Helvetica,sans-Serif" font-size="14.00">class = r</text>
</g>
<!-- 5&#45;&gt;9 -->
<g id="edge9" class="edge">
<title>5&#45;&gt;9</title>
<path fill="none" stroke="black" d="M253.39,-222.91C253.75,-212.2 254.15,-200.62 254.52,-189.78"/>
<polygon fill="black" stroke="black" points="258.02,-189.78 254.87,-179.67 251.03,-189.54 258.02,-189.78"/>
</g>
<!-- 7 -->
<g id="node8" class="node">
<title>7</title>
<path fill="#8139e5" stroke="black" d="M98,-68C98,-68 12,-68 12,-68 6,-68 0,-62 0,-56 0,-56 0,-12 0,-12 0,-6 6,0 12,0 12,0 98,0 98,0 104,0 110,-6 110,-12 110,-12 110,-56 110,-56 110,-62 104,-68 98,-68"/>
<text text-anchor="start" x="27" y="-52.8" font-family="Helvetica,sans-Serif" font-size="14.00">gini = 0.0</text>
<text text-anchor="start" x="17.5" y="-37.8" font-family="Helvetica,sans-Serif" font-size="14.00">samples = 1</text>
<text text-anchor="start" x="8" y="-22.8" font-family="Helvetica,sans-Serif" font-size="14.00">value = [0, 0, 1]</text>
<text text-anchor="start" x="29" y="-7.8" font-family="Helvetica,sans-Serif" font-size="14.00">class = r</text>
</g>
<!-- 6&#45;&gt;7 -->
<g id="edge7" class="edge">
<title>6&#45;&gt;7</title>
<path fill="none" stroke="black" d="M95.17,-103.73C90.1,-95.06 84.75,-85.9 79.65,-77.18"/>
<polygon fill="black" stroke="black" points="82.53,-75.17 74.46,-68.3 76.49,-78.7 82.53,-75.17"/>
</g>
<!-- 8 -->
<g id="node9" class="node">
<title>8</title>
<path fill="#39e581" stroke="black" d="M226,-68C226,-68 140,-68 140,-68 134,-68 128,-62 128,-56 128,-56 128,-12 128,-12 128,-6 134,0 140,0 140,0 226,0 226,0 232,0 238,-6 238,-12 238,-12 238,-56 238,-56 238,-62 232,-68 226,-68"/>
<text text-anchor="start" x="155" y="-52.8" font-family="Helvetica,sans-Serif" font-size="14.00">gini = 0.0</text>
<text text-anchor="start" x="145.5" y="-37.8" font-family="Helvetica,sans-Serif" font-size="14.00">samples = 1</text>
<text text-anchor="start" x="136" y="-22.8" font-family="Helvetica,sans-Serif" font-size="14.00">value = [0, 1, 0]</text>
<text text-anchor="start" x="155.5" y="-7.8" font-family="Helvetica,sans-Serif" font-size="14.00">class = a</text>
</g>
<!-- 6&#45;&gt;8 -->
<g id="edge8" class="edge">
<title>6&#45;&gt;8</title>
<path fill="none" stroke="black" d="M142.83,-103.73C147.9,-95.06 153.25,-85.9 158.35,-77.18"/>
<polygon fill="black" stroke="black" points="161.51,-78.7 163.54,-68.3 155.47,-75.17 161.51,-78.7"/>
</g>
<!-- 11 -->
<g id="node12" class="node">
<title>11</title>
<path fill="#ab7bee" stroke="black" d="M443,-306C443,-306 349,-306 349,-306 343,-306 337,-300 337,-294 337,-294 337,-235 337,-235 337,-229 343,-223 349,-223 349,-223 443,-223 443,-223 449,-223 455,-229 455,-235 455,-235 455,-294 455,-294 455,-300 449,-306 443,-306"/>
<text text-anchor="start" x="345" y="-290.8" font-family="Helvetica,sans-Serif" font-size="14.00">sepal.width ≤ 3.1</text>
<text text-anchor="start" x="360.5" y="-275.8" font-family="Helvetica,sans-Serif" font-size="14.00">gini = 0.375</text>
<text text-anchor="start" x="358.5" y="-260.8" font-family="Helvetica,sans-Serif" font-size="14.00">samples = 4</text>
<text text-anchor="start" x="349" y="-245.8" font-family="Helvetica,sans-Serif" font-size="14.00">value = [0, 1, 3]</text>
<text text-anchor="start" x="370" y="-230.8" font-family="Helvetica,sans-Serif" font-size="14.00">class = r</text>
</g>
<!-- 10&#45;&gt;11 -->
<g id="edge11" class="edge">
<title>10&#45;&gt;11</title>
<path fill="none" stroke="black" d="M396.65,-341.91C396.58,-333.65 396.51,-324.86 396.43,-316.3"/>
<polygon fill="black" stroke="black" points="399.93,-315.99 396.35,-306.02 392.93,-316.05 399.93,-315.99"/>
</g>
<!-- 14 -->
<g id="node15" class="node">
<title>14</title>
<path fill="#8139e5" stroke="black" d="M578.5,-298.5C578.5,-298.5 485.5,-298.5 485.5,-298.5 479.5,-298.5 473.5,-292.5 473.5,-286.5 473.5,-286.5 473.5,-242.5 473.5,-242.5 473.5,-236.5 479.5,-230.5 485.5,-230.5 485.5,-230.5 578.5,-230.5 578.5,-230.5 584.5,-230.5 590.5,-236.5 590.5,-242.5 590.5,-242.5 590.5,-286.5 590.5,-286.5 590.5,-292.5 584.5,-298.5 578.5,-298.5"/>
<text text-anchor="start" x="504" y="-283.3" font-family="Helvetica,sans-Serif" font-size="14.00">gini = 0.0</text>
<text text-anchor="start" x="491" y="-268.3" font-family="Helvetica,sans-Serif" font-size="14.00">samples = 37</text>
<text text-anchor="start" x="481.5" y="-253.3" font-family="Helvetica,sans-Serif" font-size="14.00">value = [0, 0, 37]</text>
<text text-anchor="start" x="506" y="-238.3" font-family="Helvetica,sans-Serif" font-size="14.00">class = r</text>
</g>
<!-- 10&#45;&gt;14 -->
<g id="edge14" class="edge">
<title>10&#45;&gt;14</title>
<path fill="none" stroke="black" d="M443.84,-341.91C457.46,-330.1 472.33,-317.22 485.9,-305.45"/>
<polygon fill="black" stroke="black" points="488.47,-307.86 493.73,-298.67 483.88,-302.57 488.47,-307.86"/>
</g>
<!-- 12 -->
<g id="node13" class="node">
<title>12</title>
<path fill="#8139e5" stroke="black" d="M436,-179.5C436,-179.5 350,-179.5 350,-179.5 344,-179.5 338,-173.5 338,-167.5 338,-167.5 338,-123.5 338,-123.5 338,-117.5 344,-111.5 350,-111.5 350,-111.5 436,-111.5 436,-111.5 442,-111.5 448,-117.5 448,-123.5 448,-123.5 448,-167.5 448,-167.5 448,-173.5 442,-179.5 436,-179.5"/>
<text text-anchor="start" x="365" y="-164.3" font-family="Helvetica,sans-Serif" font-size="14.00">gini = 0.0</text>
<text text-anchor="start" x="355.5" y="-149.3" font-family="Helvetica,sans-Serif" font-size="14.00">samples = 3</text>
<text text-anchor="start" x="346" y="-134.3" font-family="Helvetica,sans-Serif" font-size="14.00">value = [0, 0, 3]</text>
<text text-anchor="start" x="367" y="-119.3" font-family="Helvetica,sans-Serif" font-size="14.00">class = r</text>
</g>
<!-- 11&#45;&gt;12 -->
<g id="edge12" class="edge">
<title>11&#45;&gt;12</title>
<path fill="none" stroke="black" d="M394.96,-222.91C394.68,-212.2 394.39,-200.62 394.11,-189.78"/>
<polygon fill="black" stroke="black" points="397.61,-189.57 393.85,-179.67 390.61,-189.75 397.61,-189.57"/>
</g>
<!-- 13 -->
<g id="node14" class="node">
<title>13</title>
<path fill="#39e581" stroke="black" d="M564,-179.5C564,-179.5 478,-179.5 478,-179.5 472,-179.5 466,-173.5 466,-167.5 466,-167.5 466,-123.5 466,-123.5 466,-117.5 472,-111.5 478,-111.5 478,-111.5 564,-111.5 564,-111.5 570,-111.5 576,-117.5 576,-123.5 576,-123.5 576,-167.5 576,-167.5 576,-173.5 570,-179.5 564,-179.5"/>
<text text-anchor="start" x="493" y="-164.3" font-family="Helvetica,sans-Serif" font-size="14.00">gini = 0.0</text>
<text text-anchor="start" x="483.5" y="-149.3" font-family="Helvetica,sans-Serif" font-size="14.00">samples = 1</text>
<text text-anchor="start" x="474" y="-134.3" font-family="Helvetica,sans-Serif" font-size="14.00">value = [0, 1, 0]</text>
<text text-anchor="start" x="493.5" y="-119.3" font-family="Helvetica,sans-Serif" font-size="14.00">class = a</text>
</g>
<!-- 11&#45;&gt;13 -->
<g id="edge13" class="edge">
<title>11&#45;&gt;13</title>
<path fill="none" stroke="black" d="M439.37,-222.91C451.86,-211.21 465.49,-198.46 477.97,-186.78"/>
<polygon fill="black" stroke="black" points="480.66,-189.06 485.57,-179.67 475.87,-183.95 480.66,-189.06"/>
</g>
</g>
</svg>