<?xml version="1.0" encoding="UTF-8" standalone="no"?>
<!DOCTYPE svg PUBLIC "-//W3C//DTD SVG 1.1//EN"
 "http://www.w3.org/Graphics/SVG/1.1/DTD/svg11.dtd">
<!-- Generated by graphviz version 2.43.0 (0)
 -->
<!-- Title: Tree Pages: 1 -->
<svg width="598pt" height="671pt"
 viewBox="0.00 0.00 597.50 671.00" xmlns="http://www.w3.org/2000/svg" xmlns:xlink="http://www.w3.org/1999/xlink">
<g id="graph0" class="graph" transform="scale(1 1) rotate(0) translate(4 667)">
<title>Tree</title>
<polygon fill="white" stroke="transparent" points="-4,4 -4,-667 593.5,-667 593.5,4 -4,4"/>
<!-- 0 -->
<g id="node1" class="node">
<title>0</title>
<path fill="#f7f3fd" stroke="black" d="M307,-663C307,-663 199,-663 199,-663 193,-663 187,-657 187,-651 187,-651 187,-592 187,-592 187,-586 193,-580 199,-580 199,-580 307,-580 307,-580 313,-580 319,-586 319,-592 319,-592 319,-651 319,-651 319,-657 313,-663 307,-663"/>
<text text-anchor="start" x="201" y="-647.8" font-family="Helvetica,sans-Serif" font-size="14.00">petal.length ≤ 2.6</text>
<text text-anchor="start" x="217.5" y="-632.8" font-family="Helvetica,sans-Serif" font-size="14.00">gini = 0.665</text>
<text text-anchor="start" x="208" y="-617.8" font-family="Helvetica,sans-Serif" font-size="14.00">samples = 120</text>
<text text-anchor="start" x="195" y="-602.8" font-family="Helvetica,sans-Serif" font-size="14.00">value = [39, 37, 44]</text>
<text text-anchor="start" x="227" y="-587.8" font-family="Helvetica,sans-Serif" font-size="14.00">class = r</text>
</g>
<!-- 1 -->
<g id="node2" class="node">
<title>1</title>
<path fill="#e58139" stroke="black" d="M230.5,-536.5C230.5,-536.5 137.5,-536.5 137.5,-536.5 131.5,-536.5 125.5,-530.5 125.5,-524.5 125.5,-524.5 125.5,-480.5 125.5,-480.5 125.5,-474.5 131.5,-468.5 137.5,-468.5 137.5,-468.5 230.5,-468.5 230.5,-468.5 236.5,-468.5 242.5,-474.5 242.5,-480.5 242.5,-480.5 242.5,-524.5 242.5,-524.5 242.5,-530.5 236.5,-536.5 230.5,-536.5"/>
<text text-anchor="start" x="156" y="-521.3" font-family="Helvetica,sans-Serif" font-size="14.00">gini = 0.0</text>
<text text-anchor="start" x="143" y="-506.3" font-family="Helvetica,sans-Serif" font-size="14.00">samples = 39</text>
<text text-anchor="start" x="133.5" y="-491.3" font-family="Helvetica,sans-Serif" font-size="14.00">value = [39, 0, 0]</text>
<text text-anchor="start" x="157" y="-476.3" font-family="Helvetica,sans-Serif" font-size="14.00">class = v</text>
</g>
<!-- 0&#45;&gt;1 -->
<g id="edge1" class="edge">
<title>0&#45;&gt;1</title>
<path fill="none" stroke="black" d="M229.06,-579.91C222.49,-568.76 215.35,-556.66 208.73,-545.44"/>
<polygon fill="black" stroke="black" points="211.65,-543.5 203.56,-536.67 205.63,-547.06 211.65,-543.5"/>
<text text-anchor="middle" x="197.31" y="-557.17" font-family="Helvetica,sans-Serif" font-size="14.00">True</text>
</g>
<!-- 2 -->
<g id="node3" class="node">
<title>2</title>
<path fill="#ebe0fb" stroke="black" d="M373.5,-544C373.5,-544 272.5,-544 272.5,-544 266.5,-544 260.5,-538 260.5,-532 260.5,-532 260.5,-473 260.5,-473 260.5,-467 266.5,-461 272.5,-461 272.5,-461 373.5,-461 373.5,-461 379.5,-461 385.5,-467 385.5,-473 385.5,-473 385.5,-532 385.5,-532 385.5,-538 379.5,-544 373.5,-544"/>
<text text-anchor="start" x="270" y="-528.8" font-family="Helvetica,sans-Serif" font-size="14.00">petal.width ≤ 1.65</text>
<text text-anchor="start" x="287.5" y="-513.8" font-family="Helvetica,sans-Serif" font-size="14.00">gini = 0.496</text>
<text text-anchor="start" x="282" y="-498.8" font-family="Helvetica,sans-Serif" font-size="14.00">samples = 81</text>
<text text-anchor="start" x="268.5" y="-483.8" font-family="Helvetica,sans-Serif" font-size="14.00">value = [0, 37, 44]</text>
<text text-anchor="start" x="297" y="-468.8" font-family="Helvetica,sans-Serif" font-size="14.00">class = r</text>
</g>
<!-- 0&#45;&gt;2 -->
<g id="edge2" class="edge">
<title>0&#45;&gt;2</title>
<path fill="none" stroke="black" d="M277.29,-579.91C282.55,-571.1 288.18,-561.7 293.62,-552.61"/>
<polygon fill="black" stroke="black" points="296.63,-554.4 298.76,-544.02 290.62,-550.81 296.63,-554.4"/>
<text text-anchor="middle" x="304.85" y="-564.57" font-family="Helvetica,sans-Serif" font-size="14.00">False</text>
</g>
<!-- 3 -->
<g id="node4" class="node">
<title>3</title>
<path fill="#4fe88f" stroke="black" d="M302,-425C302,-425 198,-425 198,-425 192,-425 186,-419 186,-413 186,-413 186,-354 186,-354 186,-348 192,-342 198,-342 198,-342 302,-342 302,-342 308,-342 314,-348 314,-354 314,-354 314,-413 314,-413 314,-419 308,-425 302,-425"/>
<text text-anchor="start" x="194" y="-409.8" font-family="Helvetica,sans-Serif" font-size="14.00">petal.length ≤ 4.95</text>
<text text-anchor="start" x="218" y="-394.8" font-family="Helvetica,sans-Serif" font-size="14.00">gini = 0.18</text>
<text text-anchor="start" x="209" y="-379.8" font-family="Helvetica,sans-Serif" font-size="14.00">samples = 40</text>
<text text-anchor="start" x="199.5" y="-364.8" font-family="Helvetica,sans-Serif" font-size="14.00">value = [0, 36, 4]</text>
<text text-anchor="start" x="222.5" y="-349.8" font-family="Helvetica,sans-Serif" font-size="14.00">class = a</text>
</g>
<!-- 2&#45;&gt;3 -->
<g id="edge3" class="edge">
<title>2&#45;&gt;3</title>
<path fill="none" stroke="black" d="M297.67,-460.91C292.18,-452.1 286.31,-442.7 280.64,-433.61"/>
<polygon fill="black" stroke="black" points="283.55,-431.65 275.28,-425.02 277.61,-435.36 283.55,-431.65"/>
</g>
<!-- 10 -->
<g id="node11" class="node">
<title>10</title>
<path fill="#843ee6" stroke="black" d="M448,-425C448,-425 344,-425 344,-425 338,-425 332,-419 332,-413 332,-413 332,-354 332,-354 332,-348 338,-342 344,-342 344,-342 448,-342 448,-342 454,-342 460,-348 460,-354 460,-354 460,-413 460,-413 460,-419 454,-425 448,-425"/>
<text text-anchor="start" x="340" y="-409.8" font-family="Helvetica,sans-Serif" font-size="14.00">petal.length ≤ 4.85</text>
<text text-anchor="start" x="360.5" y="-394.8" font-family="Helvetica,sans-Serif" font-size="14.00">gini = 0.048</text>
<text text-anchor="start" x="355" y="-379.8" font-family="Helvetica,sans-Serif" font-size="14.00">samples = 41</text>
<text text-anchor="start" x="345.5" y="-364.8" font-family="Helvetica,sans-Serif" font-size="14.00">value = [0, 1, 40]</text>
<text text-anchor="start" x="370" y="-349.8" font-family="Helvetica,sans-Serif" font-size="14.00">class = r</text>
</g>
<!-- 2&#45;&gt;10 -->
<g id="edge10" class="edge">
<title>2&#45;&gt;10</title>
<path fill="none" stroke="black" d="M348.33,-460.91C353.82,-452.1 359.69,-442.7 365.36,-433.61"/>
<polygon fill="black" stroke="black" points="368.39,-435.36 370.72,-425.02 362.45,-431.65 368.39,-435.36"/>
</g>
<!-- 4 -->
<g id="node5" class="node">
<title>4</title>
<path fill="#39e581" stroke="black" d="M155.5,-298.5C155.5,-298.5 62.5,-298.5 62.5,-298.5 56.5,-298.5 50.5,-292.5 50.5,-286.5 50.5,-286.5 50.5,-242.5 50.5,-242.5 50.5,-236.5 56.5,-230.5 62.5,-230.5 62.5,-230.5 155.5,-230.5 155.5,-230.5 161.5,-230.5 167.5,-236.5 167.5,-242.5 167.5,-242.5 167.5,-286.5 167.5,-286.5 167.5,-292.5 161.5,-298.5 155.5,-298.5"/>
<text text-anchor="start" x="81" y="-283.3" font-family="Helvetica,sans-Serif" font-size="14.00">gini = 0.0</text>
<text text-anchor="start" x="68" y="-268.3" font-family="Helvetica,sans-Serif" font-size="14.00">samples = 35</text>
<text text-anchor="start" x="58.5" y="-253.3" font-family="Helvetica,sans-Serif" font-size="14.00">value = [0, 35, 0]</text>
<text text-anchor="start" x="81.5" y="-238.3" font-family="Helvetica,sans-Serif" font-size="14.00">class = a</text>
</g>
<!-- 3&#45;&gt;4 -->
<g id="edge4" class="edge">
<title>3&#45;&gt;4</title>
<path fill="none" stroke="black" d="M201.08,-341.91C186.72,-329.99 171.03,-316.98 156.75,-305.12"/>
<polygon fill="black" stroke="black" points="158.9,-302.36 148.97,-298.67 154.43,-307.75 158.9,-302.36"/>
</g>
<!-- 5 -->
<g id="node6" class="node">
<title>5</title>
<path fill="#a06aec" stroke="black" d="M304.5,-306C304.5,-306 197.5,-306 197.5,-306 191.5,-306 185.5,-300 185.5,-294 185.5,-294 185.5,-235 185.5,-235 185.5,-229 191.5,-223 197.5,-223 197.5,-223 304.5,-223 304.5,-223 310.5,-223 316.5,-229 316.5,-235 316.5,-235 316.5,-294 316.5,-294 316.5,-300 310.5,-306 304.5,-306"/>
<text text-anchor="start" x="193.5" y="-290.8" font-family="Helvetica,sans-Serif" font-size="14.00">sepal.length ≤ 6.05</text>
<text text-anchor="start" x="219" y="-275.8" font-family="Helvetica,sans-Serif" font-size="14.00">gini = 0.32</text>
<text text-anchor="start" x="213.5" y="-260.8" font-family="Helvetica,sans-Serif" font-size="14.00">samples = 5</text>
<text text-anchor="start" x="204" y="-245.8" font-family="Helvetica,sans-Serif" font-size="14.00">value = [0, 1, 4]</text>
<text text-anchor="start" x="225" y="-230.8" font-family="Helvetica,sans-Serif" font-size="14.00">class = r</text>
</g>
<!-- 3&#45;&gt;5 -->
<g id="edge5" class="edge">
<title>3&#45;&gt;5</title>
<path fill="none" stroke="black" d="M250.35,-341.91C250.42,-333.65 250.49,-324.86 250.57,-316.3"/>
<polygon fill="black" stroke="black" points="254.07,-316.05 250.65,-306.02 247.07,-315.99 254.07,-316.05"/>
</g>
<!-- 6 -->
<g id="node7" class="node">
<title>6</title>
<path fill="#ffffff" stroke="black" d="M169.5,-187C169.5,-187 68.5,-187 68.5,-187 62.5,-187 56.5,-181 56.5,-175 56.5,-175 56.5,-116 56.5,-116 56.5,-110 62.5,-104 68.5,-104 68.5,-104 169.5,-104 169.5,-104 175.5,-104 181.5,-110 181.5,-116 181.5,-116 181.5,-175 181.5,-175 181.5,-181 175.5,-187 169.5,-187"/>
<text text-anchor="start" x="64.5" y="-171.8" font-family="Helvetica,sans-Serif" font-size="14.00">sepal.width ≤ 2.45</text>
<text text-anchor="start" x="91" y="-156.8" font-family="Helvetica,sans-Serif" font-size="14.00">gini = 0.5</text>
<text text-anchor="start" x="81.5" y="-141.8" font-family="Helvetica,sans-Serif" font-size="14.00">samples = 2</text>
<text text-anchor="start" x="72" y="-126.8" font-family="Helvetica,sans-Serif" font-size="14.00">value = [0, 1, 1]</text>
<text text-anchor="start" x="91.5" y="-111.8" font-family="Helvetica,sans-Serif" font-size="14.00">class = a</text>
</g>
<!-- 5&#45;&gt;6 -->
<g id="edge6" class="edge">
<title>5&#45;&gt;6</title>
<path fill="none" stroke="black" d="M205.2,-222.91C194.66,-213.56 183.35,-203.54 172.51,-193.93"/>
<polygon fill="black" stroke="black" points="174.52,-191.03 164.72,-187.02 169.88,-196.27 174.52,-191.03"/>
</g>
<!-- 9 -->
<g id="node10" class="node">
<title>9</title>
<path fill="#8139e5" stroke="black" d="M298,-179.5C298,-179.5 212,-179.5 212,-179.5 206,-179.5 200,-173.5 200,-167.5 200,-167.5 200,-123.5 200,-123.5 200,-117.5 206,-111.5 212,-111.5 212,-111.5 298,-111.5 298,-111.5 304,-111.5 310,-117.5 310,-123.5 310,-123.5 310,-167.5 310,-167.5 310,-173.5 304,-179.5 298,-179.5"/>
<text text-anchor="start" x="227" y="-164.3" font-family="Helvetica,sans-Serif" font-size="14.00">gini = 0.0</text>
<text text-anchor="start" x="217.5" y="-149.3" font-family="Helvetica,sans-Serif" font-size="14.00">samples = 3</text>
<text text-anchor="start" x="208" y="-134.3" font-family="Helvetica,sans-Serif" font-size="14.00">value = [0, 0, 3]</text>
<text text-anchor="start" x="229" y="-119.3" font-family="Helvetica,sans-Serif" font-size="14.00">class = r</text>
</g>
<!-- 5&#45;&gt;9 -->
<g id="edge9" class="edge">
<title>5&#45;&gt;9</title>
<path fill="none" stroke="black" d="M252.39,-222.91C252.75,-212.2 253.15,-200.62 253.52,-189.78"/>
<polygon fill="black" stroke="black" points="257.02,-189.78 253.87,-179.67 250.03,-189.54 257.02,-189.78"/>
</g>
<!-- 7 -->
<g id="node8" class="node">
<title>7</title>
<path fill="#8139e5" stroke="black" d="M98,-68C98,-68 12,-68 12,-68 6,-68 0,-62 0,-56 0,-56 0,-12 0,-12 0,-6 6,0 12,0 12,0 98,0 98,0 104,0 110,-6 110,-12 110,-12 110,-56 110,-56 110,-62 104,-68 98,-68"/>
<text text-anchor="start" x="27" y="-52.8" font-family="Helvetica,sans-Serif" font-size="14.00">gini = 0.0</text>
<text text-anchor="start" x="17.5" y="-37.8" font-family="Helvetica,sans-Serif" font-size="14.00">samples = 1</text>
<text text-anchor="start" x="8" y="-22.8" font-family="Helvetica,sans-Serif" font-size="14.00">value = [0, 0, 1]</text>
<text text-anchor="start" x="29" y="-7.8" font-family="Helvetica,sans-Serif" font-size="14.00">class = r</text>
</g>
<!-- 6&#45;&gt;7 -->
<g id="edge7" class="edge">
<title>6&#45;&gt;7</title>
<path fill="none" stroke="black" d="M95.17,-103.73C90.1,-95.06 84.75,-85.9 79.65,-77.18"/>
<polygon fill="black" stroke="black" points="82.53,-75.17 74.46,-68.3 76.49,-78.7 82.53,-75.17"/>
</g>
<!-- 8 -->
<g id="node9" class="node">
<title>8</title>
<path fill="#39e581" stroke="black" d="M226,-68C226,-68 140,-68 140,-68 134,-68 128,-62 128,-56 128,-56 128,-12 128,-12 128,-6 134,0 140,0 140,0 226,0 226,0 232,0 238,-6 238,-12 238,-12 238,-56 238,-56 238,-62 232,-68 226,-68"/>
<text text-anchor="start" x="155" y="-52.8" font-family="Helvetica,sans-Serif" font-size="14.00">gini = 0.0</text>
<text text-anchor="start" x="145.5" y="-37.8" font-family="Helvetica,sans-Serif" font-size="14.00">samples = 1</text>
<text text-anchor="start" x="136" y="-22.8" font-family="Helvetica,sans-Serif" font-size="14.00">value = [0, 1, 0]</text>
<text text-anchor="start" x="155.5" y="-7.8" font-family="Helvetica,sans-Serif" font-size="14.00">class = a</text>
</g>
<!-- 6&#45;&gt;8 -->
<g id="edge8" class="edge">
<title>6&#45;&gt;8</title>
<path fill="none" stroke="black" d="M142.83,-103.73C147.9,-95.06 153.25,-85.9 158.35,-77.18"/>
<polygon fill="black" stroke="black" points="161.51,-78.7 163.54,-68.3 155.47,-75.17 161.51,-78.7"/>
</g>
<!-- 11 -->
<g id="node12" class="node">
<title>11</title>
<path fill="#ab7bee" stroke="black" d="M442,-306C442,-306 348,-306 348,-306 342,-306 336,-300 336,-294 336,-294 336,-235 336,-235 336,-229 342,-223 348,-223 348,-223 442,-223 442,-223 448,-223 454,-229 454,-235 454,-235 454,-294 454,-294 454,-300 448,-306 442,-306"/>
<text text-anchor="start" x="344" y="-290.8" font-family="Helvetica,sans-Serif" font-size="14.00">sepal.width ≤ 3.1</text>
<text text-anchor="start" x="359.5" y="-275.8" font-family="Helvetica,sans-Serif" font-size="14.00">gini = 0.375</text>
<text text-anchor="start" x="357.5" y="-260.8" font-family="Helvetica,sans-Serif" font-size="14.00">samples = 4</text>
<text text-anchor="start" x="348" y="-245.8" font-family="Helvetica,sans-Serif" font-size="14.00">value = [0, 1, 3]</text>
<text text-anchor="start" x="369" y="-230.8" font-family="Helvetica,sans-Serif" font-size="14.00">class = r</text>
</g>
<!-- 10&#45;&gt;11 -->
<g id="edge11" class="edge">
<title>10&#45;&gt;11</title>
<path fill="none" stroke="black" d="M395.65,-341.91C395.58,-333.65 395.51,-324.86 395.43,-316.3"/>
<polygon fill="black" stroke="black" points="398.93,-315.99 395.35,-306.02 391.93,-316.05 398.93,-315.99"/>
</g>
<!-- 14 -->
<g id="node15" class="node">
<title>14</title>
<path fill="#8139e5" stroke="black" d="M577.5,-298.5C577.5,-298.5 484.5,-298.5 484.5,-298.5 478.5,-298.5 472.5,-292.5 472.5,-286.5 472.5,-286.5 472.5,-242.5 472.5,-242.5 472.5,-236.5 478.5,-230.5 484.5,-230.5 484.5,-230.5 577.5,-230.5 577.5,-230.5 583.5,-230.5 589.5,-236.5 589.5,-242.5 589.5,-242.5 589.5,-286.5 589.5,-286.5 589.5,-292.5 583.5,-298.5 577.5,-298.5"/>
<text text-anchor="start" x="503" y="-283.3" font-family="Helvetica,sans-Serif" font-size="14.00">gini = 0.0</text>
<text text-anchor="start" x="490" y="-268.3" font-family="Helvetica,sans-Serif" font-size="14.00">samples = 37</text>
<text text-anchor="start" x="480.5" y="-253.3" font-family="Helvetica,sans-Serif" font-size="14.00">value = [0, 0, 37]</text>
<text text-anchor="start" x="505" y="-238.3" font-family="Helvetica,sans-Serif" font-size="14.00">class = r</text>
</g>
<!-- 10&#45;&gt;14 -->
<g id="edge14" class="edge">
<title>10&#45;&gt;14</title>
<path fill="none" stroke="black" d="M442.84,-341.91C456.46,-330.1 471.33,-317.22 484.9,-305.45"/>
<polygon fill="black" stroke="black" points="487.47,-307.86 492.73,-298.67 482.88,-302.57 487.47,-307.86"/>
</g>
<!-- 12 -->
<g id="node13" class="node">
<title>12</title>
<path fill="#8139e5" stroke="black" d="M435,-179.5C435,-179.5 349,-179.5 349,-179.5 343,-179.5 337,-173.5 337,-167.5 337,-167.5 337,-123.5 337,-123.5 337,-117.5 343,-111.5 349,-111.5 349,-111.5 435,-111.5 435,-111.5 441,-111.5 447,-117.5 447,-123.5 447,-123.5 447,-167.5 447,-167.5 447,-173.5 441,-179.5 435,-179.5"/>
<text text-anchor="start" x="364" y="-164.3" font-family="Helvetica,sans-Serif" font-size="14.00">gini = 0.0</text>
<text text-anchor="start" x="354.5" y="-149.3" font-family="Helvetica,sans-Serif" font-size="14.00">samples = 3</text>
<text text-anchor="start" x="345" y="-134.3" font-family="Helvetica,sans-Serif" font-size="14.00">value = [0, 0, 3]</text>
<text text-anchor="start" x="366" y="-119.3" font-family="Helvetica,sans-Serif" font-size="14.00">class = r</text>
</g>
<!-- 11&#45;&gt;12 -->
<g id="edge12" class="edge">
<title>11&#45;&gt;12</title>
<path fill="none" stroke="black" d="M393.96,-222.91C393.68,-212.2 393.39,-200.62 393.11,-189.78"/>
<polygon fill="black" stroke="black" points="396.61,-189.57 392.85,-179.67 389.61,-189.75 396.61,-189.57"/>
</g>
<!-- 13 -->
<g id="node14" class="node">
<title>13</title>
<path fill="#39e581" stroke="black" d="M563,-179.5C563,-179.5 477,-179.5 477,-179.5 471,-179.5 465,-173.5 465,-167.5 465,-167.5 465,-123.5 465,-123.5 465,-117.5 471,-111.5 477,-111.5 477,-111.5 563,-111.5 563,-111.5 569,-111.5 575,-117.5 575,-123.5 575,-123.5 575,-167.5 575,-167.5 575,-173.5 569,-179.5 563,-179.5"/>
<text text-anchor="start" x="492" y="-164.3" font-family="Helvetica,sans-Serif" font-size="14.00">gini = 0.0</text>
<text text-anchor="start" x="482.5" y="-149.3" font-family="Helvetica,sans-Serif" font-size="14.00">samples = 1</text>
<text text-anchor="start" x="473" y="-134.3" font-family="Helvetica,sans-Serif" font-size="14.00">value = [0, 1, 0]</text>
<text text-anchor="start" x="492.5" y="-119.3" font-family="Helvetica,sans-Serif" font-size="14.00">class = a</text>
</g>
<!-- 11&#45;&gt;13 -->
<g id="edge13" class="edge">
<title>11&#45;&gt;13</title>
<path fill="none" stroke="black" d="M438.37,-222.91C450.86,-211.21 464.49,-198.46 476.97,-186.78"/>
<polygon fill="black" stroke="black" points="479.66,-189.06 484.57,-179.67 474.87,-183.95 479.66,-189.06"/>
</g>
</g>
</svg>