<?xml version="1.0" encoding="UTF-8" standalone="no"?>
<!DOCTYPE svg PUBLIC "-//W3C//DTD SVG 1.1//EN"
 "http://www.w3.org/Graphics/SVG/1.1/DTD/svg11.dtd">
<!-- Generated by graphviz version 2.43.0 (0)
 -->
<!-- Title: Tree Pages: 1 -->
<svg width="542pt" height="671pt"
 viewBox="0.00 0.00 542.00 671.00" xmlns="http://www.w3.org/2000/svg" xmlns:xlink="http://www.w3.org/1999/xlink">
<g id="graph0" class="graph" transform="scale(1 1) rotate(0) translate(4 667)">
<title>Tree</title>
<polygon fill="white" stroke="transparent" points="-4,4 -4,-667 538,-667 538,4 -4,4"/>
<!-- 0 -->
<g id="node1" class="node">
<title>0</title>
<path fill="#f7f3fd" stroke="black" d="M251.5,-663C251.5,-663 143.5,-663 143.5,-663 137.5,-663 131.5,-657 131.5,-651 131.5,-651 131.5,-592 131.5,-592 131.5,-586 137.5,-580 143.5,-580 143.5,-580 251.5,-580 251.5,-580 257.5,-580 263.5,-586 263.5,-592 263.5,-592 263.5,-651 263.5,-651 263.5,-657 257.5,-663 251.5,-663"/>
<text text-anchor="start" x="148" y="-647.8" font-family="Helvetica,sans-Serif" font-size="14.00">petal.width ≤ 0.8</text>
<text text-anchor="start" x="162" y="-632.8" font-family="Helvetica,sans-Serif" font-size="14.00">gini = 0.665</text>
<text text-anchor="start" x="152.5" y="-617.8" font-family="Helvetica,sans-Serif" font-size="14.00">samples = 120</text>
<text text-anchor="start" x="139.5" y="-602.8" font-family="Helvetica,sans-Serif" font-size="14.00">value = [39, 37, 44]</text>
<text text-anchor="start" x="171.5" y="-587.8" font-family="Helvetica,sans-Serif" font-size="14.00">class = r</text>
</g>
<!-- 1 -->
<g id="node2" class="node">
<title>1</title>
<path fill="#e58139" stroke="black" d="M175,-536.5C175,-536.5 82,-536.5 82,-536.5 76,-536.5 70,-530.5 70,-524.5 70,-524.5 70,-480.5 70,-480.5 70,-474.5 76,-468.5 82,-468.5 82,-468.5 175,-468.5 175,-468.5 181,-468.5 187,-474.5 187,-480.5 187,-480.5 187,-524.5 187,-524.5 187,-530.5 181,-536.5 175,-536.5"/>
<text text-anchor="start" x="100.5" y="-521.3" font-family="Helvetica,sans-Serif" font-size="14.00">gini = 0.0</text>
<text text-anchor="start" x="87.5" y="-506.3" font-family="Helvetica,sans-Serif" font-size="14.00">samples = 39</text>
<text text-anchor="start" x="78" y="-491.3" font-family="Helvetica,sans-Serif" font-size="14.00">value = [39, 0, 0]</text>
<text text-anchor="start" x="101.5" y="-476.3" font-family="Helvetica,sans-Serif" font-size="14.00">class = v</text>
</g>
<!-- 0&#45;&gt;1 -->
<g id="edge1" class="edge">
<title>0&#45;&gt;1</title>
<path fill="none" stroke="black" d="M173.56,-579.91C166.99,-568.76 159.85,-556.66 153.23,-545.44"/>
<polygon fill="black" stroke="black" points="156.15,-543.5 148.06,-536.67 150.13,-547.06 156.15,-543.5"/>
<text text-anchor="middle" x="141.81" y="-557.17" font-family="Helvetica,sans-Serif" font-size="14.00">True</text>
</g>
<!-- 2 -->
<g id="node3" class="node">
<title>2</title>
<path fill="#ebe0fb" stroke="black" d="M318,-544C318,-544 217,-544 217,-544 211,-544 205,-538 205,-532 205,-532 205,-473 205,-473 205,-467 211,-461 217,-461 217,-461 318,-461 318,-461 324,-461 330,-467 330,-473 330,-473 330,-532 330,-532 330,-538 324,-544 318,-544"/>
<text text-anchor="start" x="214.5" y="-528.8" font-family="Helvetica,sans-Serif" font-size="14.00">petal.width ≤ 1.65</text>
<text text-anchor="start" x="232" y="-513.8" font-family="Helvetica,sans-Serif" font-size="14.00">gini = 0.496</text>
<text text-anchor="start" x="226.5" y="-498.8" font-family="Helvetica,sans-Serif" font-size="14.00">samples = 81</text>
<text text-anchor="start" x="213" y="-483.8" font-family="Helvetica,sans-Serif" font-size="14.00">value = [0, 37, 44]</text>
<text text-anchor="start" x="241.5" y="-468.8" font-family="Helvetica,sans-Serif" font-size="14.00">class = r</text>
</g>
<!-- 0&#45;&gt;2 -->
<g id="edge2" class="edge">
<title>0&#45;&gt;2</title>
<path fill="none" stroke="black" d="M221.79,-579.91C227.05,-571.1 232.68,-561.7 238.12,-552.61"/>
<polygon fill="black" stroke="black" points="241.13,-554.4 243.26,-544.02 235.12,-550.81 241.13,-554.4"/>
<text text-anchor="middle" x="249.35" y="-564.57" font-family="Helvetica,sans-Serif" font-size="14.00">False</text>
</g>
<!-- 3 -->
<g id="node4" class="node">
<title>3</title>
<path fill="#4fe88f" stroke="black" d="M246.5,-425C246.5,-425 142.5,-425 142.5,-425 136.5,-425 130.5,-419 130.5,-413 130.5,-413 130.5,-354 130.5,-354 130.5,-348 136.5,-342 142.5,-342 142.5,-342 246.5,-342 246.5,-342 252.5,-342 258.5,-348 258.5,-354 258.5,-354 258.5,-413 258.5,-413 258.5,-419 252.5,-425 246.5,-425"/>
<text text-anchor="start" x="138.5" y="-409.8" font-family="Helvetica,sans-Serif" font-size="14.00">petal.length ≤ 4.95</text>
<text text-anchor="start" x="162.5" y="-394.8" font-family="Helvetica,sans-Serif" font-size="14.00">gini = 0.18</text>
<text text-anchor="start" x="153.5" y="-379.8" font-family="Helvetica,sans-Serif" font-size="14.00">samples = 40</text>
<text text-anchor="start" x="144" y="-364.8" font-family="Helvetica,sans-Serif" font-size="14.00">value = [0, 36, 4]</text>
<text text-anchor="start" x="167" y="-349.8" font-family="Helvetica,sans-Serif" font-size="14.00">class = a</text>
</g>
<!-- 2&#45;&gt;3 -->
<g id="edge3" class="edge">
<title>2&#45;&gt;3</title>
<path fill="none" stroke="black" d="M242.17,-460.91C236.68,-452.1 230.81,-442.7 225.14,-433.61"/>
<polygon fill="black" stroke="black" points="228.05,-431.65 219.78,-425.02 222.11,-435.36 228.05,-431.65"/>
</g>
<!-- 10 -->
<g id="node11" class="node">
<title>10</title>
<path fill="#843ee6" stroke="black" d="M392.5,-425C392.5,-425 288.5,-425 288.5,-425 282.5,-425 276.5,-419 276.5,-413 276.5,-413 276.5,-354 276.5,-354 276.5,-348 282.5,-342 288.5,-342 288.5,-342 392.5,-342 392.5,-342 398.5,-342 404.5,-348 404.5,-354 404.5,-354 404.5,-413 404.5,-413 404.5,-419 398.5,-425 392.5,-425"/>
<text text-anchor="start" x="284.5" y="-409.8" font-family="Helvetica,sans-Serif" font-size="14.00">petal.length ≤ 4.85</text>
<text text-anchor="start" x="305" y="-394.8" font-family="Helvetica,sans-Serif" font-size="14.00">gini = 0.048</text>
<text text-anchor="start" x="299.5" y="-379.8" font-family="Helvetica,sans-Serif" font-size="14.00">samples = 41</text>
<text text-anchor="start" x="290" y="-364.8" font-family="Helvetica,sans-Serif" font-size="14.00">value = [0, 1, 40]</text>
<text text-anchor="start" x="314.5" y="-349.8" font-family="Helvetica,sans-Serif" font-size="14.00">class = r</text>
</g>
<!-- 2&#45;&gt;10 -->
<g id="edge10" class="edge">
<title>2&#45;&gt;10</title>
<path fill="none" stroke="black" d="M292.83,-460.91C298.32,-452.1 304.19,-442.7 309.86,-433.61"/>
<polygon fill="black" stroke="black" points="312.89,-435.36 315.22,-425.02 306.95,-431.65 312.89,-435.36"/>
</g>
<!-- 4 -->
<g id="node5" class="node">
<title>4</title>
<path fill="#39e581" stroke="black" d="M105,-298.5C105,-298.5 12,-298.5 12,-298.5 6,-298.5 0,-292.5 0,-286.5 0,-286.5 0,-242.5 0,-242.5 0,-236.5 6,-230.5 12,-230.5 12,-230.5 105,-230.5 105,-230.5 111,-230.5 117,-236.5 117,-242.5 117,-242.5 117,-286.5 117,-286.5 117,-292.5 111,-298.5 105,-298.5"/>
<text text-anchor="start" x="30.5" y="-283.3" font-family="Helvetica,sans-Serif" font-size="14.00">gini = 0.0</text>
<text text-anchor="start" x="17.5" y="-268.3" font-family="Helvetica,sans-Serif" font-size="14.00">samples = 35</text>
<text text-anchor="start" x="8" y="-253.3" font-family="Helvetica,sans-Serif" font-size="14.00">value = [0, 35, 0]</text>
<text text-anchor="start" x="31" y="-238.3" font-family="Helvetica,sans-Serif" font-size="14.00">class = a</text>
</g>
<!-- 3&#45;&gt;4 -->
<g id="edge4" class="edge">
<title>3&#45;&gt;4</title>
<path fill="none" stroke="black" d="M147.32,-341.91C133.59,-330.1 118.61,-317.22 104.94,-305.45"/>
<polygon fill="black" stroke="black" points="106.92,-302.54 97.05,-298.67 102.35,-307.84 106.92,-302.54"/>
</g>
<!-- 5 -->
<g id="node6" class="node">
<title>5</title>
<path fill="#a06aec" stroke="black" d="M245.5,-306C245.5,-306 147.5,-306 147.5,-306 141.5,-306 135.5,-300 135.5,-294 135.5,-294 135.5,-235 135.5,-235 135.5,-229 141.5,-223 147.5,-223 147.5,-223 245.5,-223 245.5,-223 251.5,-223 257.5,-229 257.5,-235 257.5,-235 257.5,-294 257.5,-294 257.5,-300 251.5,-306 245.5,-306"/>
<text text-anchor="start" x="143.5" y="-290.8" font-family="Helvetica,sans-Serif" font-size="14.00">petal.width ≤ 1.55</text>
<text text-anchor="start" x="164.5" y="-275.8" font-family="Helvetica,sans-Serif" font-size="14.00">gini = 0.32</text>
<text text-anchor="start" x="159" y="-260.8" font-family="Helvetica,sans-Serif" font-size="14.00">samples = 5</text>
<text text-anchor="start" x="149.5" y="-245.8" font-family="Helvetica,sans-Serif" font-size="14.00">value = [0, 1, 4]</text>
<text text-anchor="start" x="170.5" y="-230.8" font-family="Helvetica,sans-Serif" font-size="14.00">class = r</text>
</g>
<!-- 3&#45;&gt;5 -->
<g id="edge5" class="edge">
<title>3&#45;&gt;5</title>
<path fill="none" stroke="black" d="M195.19,-341.91C195.34,-333.56 195.49,-324.67 195.64,-316.02"/>
<polygon fill="black" stroke="black" points="199.14,-316.08 195.81,-306.02 192.14,-315.96 199.14,-316.08"/>
</g>
<!-- 6 -->
<g id="node7" class="node">
<title>6</title>
<path fill="#8139e5" stroke="black" d="M104.5,-179.5C104.5,-179.5 18.5,-179.5 18.5,-179.5 12.5,-179.5 6.5,-173.5 6.5,-167.5 6.5,-167.5 6.5,-123.5 6.5,-123.5 6.5,-117.5 12.5,-111.5 18.5,-111.5 18.5,-111.5 104.5,-111.5 104.5,-111.5 110.5,-111.5 116.5,-117.5 116.5,-123.5 116.5,-123.5 116.5,-167.5 116.5,-167.5 116.5,-173.5 110.5,-179.5 104.5,-179.5"/>
<text text-anchor="start" x="33.5" y="-164.3" font-family="Helvetica,sans-Serif" font-size="14.00">gini = 0.0</text>
<text text-anchor="start" x="24" y="-149.3" font-family="Helvetica,sans-Serif" font-size="14.00">samples = 3</text>
<text text-anchor="start" x="14.5" y="-134.3" font-family="Helvetica,sans-Serif" font-size="14.00">value = [0, 0, 3]</text>
<text text-anchor="start" x="35.5" y="-119.3" font-family="Helvetica,sans-Serif" font-size="14.00">class = r</text>
</g>
<!-- 5&#45;&gt;6 -->
<g id="edge6" class="edge">
<title>5&#45;&gt;6</title>
<path fill="none" stroke="black" d="M149.66,-222.91C136.04,-211.1 121.17,-198.22 107.6,-186.45"/>
<polygon fill="black" stroke="black" points="109.62,-183.57 99.77,-179.67 105.03,-188.86 109.62,-183.57"/>
</g>
<!-- 7 -->
<g id="node8" class="node">
<title>7</title>
<path fill="#ffffff" stroke="black" d="M248,-187C248,-187 147,-187 147,-187 141,-187 135,-181 135,-175 135,-175 135,-116 135,-116 135,-110 141,-104 147,-104 147,-104 248,-104 248,-104 254,-104 260,-110 260,-116 260,-116 260,-175 260,-175 260,-181 254,-187 248,-187"/>
<text text-anchor="start" x="143" y="-171.8" font-family="Helvetica,sans-Serif" font-size="14.00">sepal.width ≤ 2.85</text>
<text text-anchor="start" x="169.5" y="-156.8" font-family="Helvetica,sans-Serif" font-size="14.00">gini = 0.5</text>
<text text-anchor="start" x="160" y="-141.8" font-family="Helvetica,sans-Serif" font-size="14.00">samples = 2</text>
<text text-anchor="start" x="150.5" y="-126.8" font-family="Helvetica,sans-Serif" font-size="14.00">value = [0, 1, 1]</text>
<text text-anchor="start" x="170" y="-111.8" font-family="Helvetica,sans-Serif" font-size="14.00">class = a</text>
</g>
<!-- 5&#45;&gt;7 -->
<g id="edge7" class="edge">
<title>5&#45;&gt;7</title>
<path fill="none" stroke="black" d="M196.85,-222.91C196.92,-214.65 196.99,-205.86 197.07,-197.3"/>
<polygon fill="black" stroke="black" points="200.57,-197.05 197.15,-187.02 193.57,-196.99 200.57,-197.05"/>
</g>
<!-- 8 -->
<g id="node9" class="node">
<title>8</title>
<path fill="#39e581" stroke="black" d="M176.5,-68C176.5,-68 90.5,-68 90.5,-68 84.5,-68 78.5,-62 78.5,-56 78.5,-56 78.5,-12 78.5,-12 78.5,-6 84.5,0 90.5,0 90.5,0 176.5,0 176.5,0 182.5,0 188.5,-6 188.5,-12 188.5,-12 188.5,-56 188.5,-56 188.5,-62 182.5,-68 176.5,-68"/>
<text text-anchor="start" x="105.5" y="-52.8" font-family="Helvetica,sans-Serif" font-size="14.00">gini = 0.0</text>
<text text-anchor="start" x="96" y="-37.8" font-family="Helvetica,sans-Serif" font-size="14.00">samples = 1</text>
<text text-anchor="start" x="86.5" y="-22.8" font-family="Helvetica,sans-Serif" font-size="14.00">value = [0, 1, 0]</text>
<text text-anchor="start" x="106" y="-7.8" font-family="Helvetica,sans-Serif" font-size="14.00">class = a</text>
</g>
<!-- 7&#45;&gt;8 -->
<g id="edge8" class="edge">
<title>7&#45;&gt;8</title>
<path fill="none" stroke="black" d="M173.67,-103.73C168.6,-95.06 163.25,-85.9 158.15,-77.18"/>
<polygon fill="black" stroke="black" points="161.03,-75.17 152.96,-68.3 154.99,-78.7 161.03,-75.17"/>
</g>
<!-- 9 -->
<g id="node10" class="node">
<title>9</title>
<path fill="#8139e5" stroke="black" d="M304.5,-68C304.5,-68 218.5,-68 218.5,-68 212.5,-68 206.5,-62 206.5,-56 206.5,-56 206.5,-12 206.5,-12 206.5,-6 212.5,0 218.5,0 218.5,0 304.5,0 304.5,0 310.5,0 316.5,-6 316.5,-12 316.5,-12 316.5,-56 316.5,-56 316.5,-62 310.5,-68 304.5,-68"/>
<text text-anchor="start" x="233.5" y="-52.8" font-family="Helvetica,sans-Serif" font-size="14.00">gini = 0.0</text>
<text text-anchor="start" x="224" y="-37.8" font-family="Helvetica,sans-Serif" font-size="14.00">samples = 1</text>
<text text-anchor="start" x="214.5" y="-22.8" font-family="Helvetica,sans-Serif" font-size="14.00">value = [0, 0, 1]</text>
<text text-anchor="start" x="235.5" y="-7.8" font-family="Helvetica,sans-Serif" font-size="14.00">class = r</text>
</g>
<!-- 7&#45;&gt;9 -->
<g id="edge9" class="edge">
<title>7&#45;&gt;9</title>
<path fill="none" stroke="black" d="M221.33,-103.73C226.4,-95.06 231.75,-85.9 236.85,-77.18"/>
<polygon fill="black" stroke="black" points="240.01,-78.7 242.04,-68.3 233.97,-75.17 240.01,-78.7"/>
</g>
<!-- 11 -->
<g id="node12" class="node">
<title>11</title>
<path fill="#ab7bee" stroke="black" d="M386.5,-306C386.5,-306 292.5,-306 292.5,-306 286.5,-306 280.5,-300 280.5,-294 280.5,-294 280.5,-235 280.5,-235 280.5,-229 286.5,-223 292.5,-223 292.5,-223 386.5,-223 386.5,-223 392.5,-223 398.5,-229 398.5,-235 398.5,-235 398.5,-294 398.5,-294 398.5,-300 392.5,-306 386.5,-306"/>
<text text-anchor="start" x="288.5" y="-290.8" font-family="Helvetica,sans-Serif" font-size="14.00">sepal.width ≤ 3.1</text>
<text text-anchor="start" x="304" y="-275.8" font-family="Helvetica,sans-Serif" font-size="14.00">gini = 0.375</text>
<text text-anchor="start" x="302" y="-260.8" font-family="Helvetica,sans-Serif" font-size="14.00">samples = 4</text>
<text text-anchor="start" x="292.5" y="-245.8" font-family="Helvetica,sans-Serif" font-size="14.00">value = [0, 1, 3]</text>
<text text-anchor="start" x="313.5" y="-230.8" font-family="Helvetica,sans-Serif" font-size="14.00">class = r</text>
</g>
<!-- 10&#45;&gt;11 -->
<g id="edge11" class="edge">
<title>10&#45;&gt;11</title>
<path fill="none" stroke="black" d="M340.15,-341.91C340.08,-333.65 340.01,-324.86 339.93,-316.3"/>
<polygon fill="black" stroke="black" points="343.43,-315.99 339.85,-306.02 336.43,-316.05 343.43,-315.99"/>
</g>
<!-- 14 -->
<g id="node15" class="node">
<title>14</title>
<path fill="#8139e5" stroke="black" d="M522,-298.5C522,-298.5 429,-298.5 429,-298.5 423,-298.5 417,-292.5 417,-286.5 417,-286.5 417,-242.5 417,-242.5 417,-236.5 423,-230.5 429,-230.5 429,-230.5 522,-230.5 522,-230.5 528,-230.5 534,-236.5 534,-242.5 534,-242.5 534,-286.5 534,-286.5 534,-292.5 528,-298.5 522,-298.5"/>
<text text-anchor="start" x="447.5" y="-283.3" font-family="Helvetica,sans-Serif" font-size="14.00">gini = 0.0</text>
<text text-anchor="start" x="434.5" y="-268.3" font-family="Helvetica,sans-Serif" font-size="14.00">samples = 37</text>
<text text-anchor="start" x="425" y="-253.3" font-family="Helvetica,sans-Serif" font-size="14.00">value = [0, 0, 37]</text>
<text text-anchor="start" x="449.5" y="-238.3" font-family="Helvetica,sans-Serif" font-size="14.00">class = r</text>
</g>
<!-- 10&#45;&gt;14 -->
<g id="edge14" class="edge">
<title>10&#45;&gt;14</title>
<path fill="none" stroke="black" d="M387.34,-341.91C400.96,-330.1 415.83,-317.22 429.4,-305.45"/>
<polygon fill="black" stroke="black" points="431.97,-307.86 437.23,-298.67 427.38,-302.57 431.97,-307.86"/>
</g>
<!-- 12 -->
<g id="node13" class="node">
<title>12</title>
<path fill="#8139e5" stroke="black" d="M381.5,-179.5C381.5,-179.5 295.5,-179.5 295.5,-179.5 289.5,-179.5 283.5,-173.5 283.5,-167.5 283.5,-167.5 283.5,-123.5 283.5,-123.5 283.5,-117.5 289.5,-111.5 295.5,-111.5 295.5,-111.5 381.5,-111.5 381.5,-111.5 387.5,-111.5 393.5,-117.5 393.5,-123.5 393.5,-123.5 393.5,-167.5 393.5,-167.5 393.5,-173.5 387.5,-179.5 381.5,-179.5"/>
<text text-anchor="start" x="310.5" y="-164.3" font-family="Helvetica,sans-Serif" font-size="14.00">gini = 0.0</text>
<text text-anchor="start" x="301" y="-149.3" font-family="Helvetica,sans-Serif" font-size="14.00">samples = 3</text>
<text text-anchor="start" x="291.5" y="-134.3" font-family="Helvetica,sans-Serif" font-size="14.00">value = [0, 0, 3]</text>
<text text-anchor="start" x="312.5" y="-119.3" font-family="Helvetica,sans-Serif" font-size="14.00">class = r</text>
</g>
<!-- 11&#45;&gt;12 -->
<g id="edge12" class="edge">
<title>11&#45;&gt;12</title>
<path fill="none" stroke="black" d="M339.15,-222.91C339.06,-212.2 338.96,-200.62 338.87,-189.78"/>
<polygon fill="black" stroke="black" points="342.37,-189.64 338.78,-179.67 335.37,-189.7 342.37,-189.64"/>
</g>
<!-- 13 -->
<g id="node14" class="node">
<title>13</title>
<path fill="#39e581" stroke="black" d="M509.5,-179.5C509.5,-179.5 423.5,-179.5 423.5,-179.5 417.5,-179.5 411.5,-173.5 411.5,-167.5 411.5,-167.5 411.5,-123.5 411.5,-123.5 411.5,-117.5 417.5,-111.5 423.5,-111.5 423.5,-111.5 509.5,-111.5 509.5,-111.5 515.5,-111.5 521.5,-117.5 521.5,-123.5 521.5,-123.5 521.5,-167.5 521.5,-167.5 521.5,-173.5 515.5,-179.5 509.5,-179.5"/>
<text text-anchor="start" x="438.5" y="-164.3" font-family="Helvetica,sans-Serif" font-size="14.00">gini = 0.0</text>
<text text-anchor="start" x="429" y="-149.3" font-family="Helvetica,sans-Serif" font-size="14.00">samples = 1</text>
<text text-anchor="start" x="419.5" y="-134.3" font-family="Helvetica,sans-Serif" font-size="14.00">value = [0, 1, 0]</text>
<text text-anchor="start" x="439" y="-119.3" font-family="Helvetica,sans-Serif" font-size="14.00">class = a</text>
</g>
<!-- 11&#45;&gt;13 -->
<g id="edge13" class="edge">
<title>11&#45;&gt;13</title>
<path fill="none" stroke="black" d="M383.56,-222.91C396.38,-211.1 410.36,-198.22 423.14,-186.45"/>
<polygon fill="black" stroke="black" points="425.52,-189.02 430.5,-179.67 420.77,-183.87 425.52,-189.02"/>
</g>
</g>
</svg>